<?xml version="1.0" encoding="UTF-8" standalone="no"?>
<!-- Created with Inkscape (http://www.inkscape.org/) -->

<svg
   xmlns:dc="http://purl.org/dc/elements/1.1/"
   xmlns:cc="http://creativecommons.org/ns#"
   xmlns:rdf="http://www.w3.org/1999/02/22-rdf-syntax-ns#"
   xmlns:svg="http://www.w3.org/2000/svg"
   xmlns="http://www.w3.org/2000/svg"
   xmlns:xlink="http://www.w3.org/1999/xlink"
   xmlns:sodipodi="http://sodipodi.sourceforge.net/DTD/sodipodi-0.dtd"
   xmlns:inkscape="http://www.inkscape.org/namespaces/inkscape"
   width="512"
   height="512"
   id="svg2"
   version="1.1"
   inkscape:version="0.48.4 r9939"
   sodipodi:docname="yutamo-destry-c170.svg">
  <defs
     id="defs4">
    <inkscape:path-effect
       effect="spiro"
       id="path-effect4469"
       is_visible="true" />
    <inkscape:path-effect
       effect="spiro"
       id="path-effect4465"
       is_visible="true" />
    <linearGradient
       inkscape:collect="always"
       id="linearGradient4404">
      <stop
         style="stop-color:#000000;stop-opacity:1;"
         offset="0"
         id="stop4406" />
      <stop
         style="stop-color:#000000;stop-opacity:0;"
         offset="1"
         id="stop4408" />
    </linearGradient>
    <inkscape:path-effect
       effect="spiro"
       id="path-effect4200"
       is_visible="true" />
    <inkscape:path-effect
       effect="spiro"
       id="path-effect4196"
       is_visible="true" />
    <inkscape:path-effect
       effect="spiro"
       id="path-effect4142"
       is_visible="true" />
    <inkscape:path-effect
       effect="spiro"
       id="path-effect4134"
       is_visible="true" />
    <inkscape:path-effect
       effect="spiro"
       id="path-effect4130"
       is_visible="true" />
    <inkscape:path-effect
       effect="spiro"
       id="path-effect4122"
       is_visible="true" />
    <inkscape:path-effect
       effect="spiro"
       id="path-effect4118"
       is_visible="true" />
    <inkscape:path-effect
       effect="spiro"
       id="path-effect4110"
       is_visible="true" />
    <inkscape:path-effect
       effect="spiro"
       id="path-effect4094"
       is_visible="true" />
    <linearGradient
       inkscape:collect="always"
       xlink:href="#linearGradient4404"
       id="linearGradient4410"
       x1="43.375217"
       y1="678.04602"
       x2="133.84397"
       y2="678.04602"
       gradientUnits="userSpaceOnUse" />
  </defs>
  <sodipodi:namedview
     id="base"
     pagecolor="#ffffff"
     bordercolor="#666666"
     borderopacity="1.0"
     inkscape:pageopacity="0.0"
     inkscape:pageshadow="2"
     inkscape:zoom="0.98994949"
     inkscape:cx="273.41388"
     inkscape:cy="392.01865"
     inkscape:document-units="px"
     inkscape:current-layer="layer1"
     showgrid="false"
     inkscape:snap-bbox="true"
     inkscape:snap-global="true"
     objecttolerance="35"
     guidetolerance="40"
     inkscape:snap-nodes="true"
     inkscape:object-paths="true"
     inkscape:object-nodes="false"
     inkscape:snap-smooth-nodes="false"
     inkscape:snap-midpoints="false"
     gridtolerance="10"
     inkscape:snap-center="true"
     inkscape:snap-grids="true"
     inkscape:window-width="1855"
     inkscape:window-height="1176"
     inkscape:window-x="1985"
     inkscape:window-y="24"
     inkscape:window-maximized="1"
     showguides="true"
     inkscape:guide-bbox="true" />
  <metadata
     id="metadata7">
    <rdf:RDF>
      <cc:Work
         rdf:about="">
        <dc:format>image/svg+xml</dc:format>
        <dc:type
           rdf:resource="http://purl.org/dc/dcmitype/StillImage" />
        <dc:title></dc:title>
      </cc:Work>
    </rdf:RDF>
  </metadata>
  <g
     inkscape:label="Layer 1"
     inkscape:groupmode="layer"
     id="layer1"
     transform="translate(0,-540.36218)">
    <path
       style="fill:#c8c4b7;fill-opacity:1;stroke:none"
       d="m 139.21234,653.80619 0,-7.07106 6.06092,0 6.06092,0 0,7.07106 0,7.07107 -6.06092,0 -6.06092,0 0,-7.07107 z"
       id="path3966"
       inkscape:connector-curvature="0" />
    <g
       id="g4251"
       transform="translate(160.71429,12.857143)">
      <path
         inkscape:connector-curvature="0"
         d="m 1.330167,582.72234 23.31573,-40.84712 m 154.844423,42.63365 -178.95558303,0 M 179.49032,584.79008 152.7584,541.58225 M 101.94067,935.281 89.453827,922.79416 l -10.7741,10.7741 m 10.7741,-74.47934 0,65.11664 m -59.56071,38.49897 0,39.37017 m 11.53268,-39.37017 0,39.37017 m 11.5327,-39.37017 0,39.37017 m 13.12341,-39.37017 0,39.37017 m 49.382023,-39.96677 0,39.37017 m 11.53268,-39.37017 0,39.37017 m 11.53271,-39.37017 0,39.37017 m 13.1234,-39.37017 0,39.37017 m -72.972993,-142.85429 0,142.54439 -61.64241,0 0,-68.98415 0,0 m 84.903353,-73.25027 0,142.54432 61.64241,0 0,-68.98408 0,0 m -162.252913,28.81861 54.48193,-101.80581 64.026303,-0.79536 59.65192,100.61277 -9e-5,2.7837 m -100.294843,0 -62.42672,0 m -15.4385,0 0,-199.74575 0,-0.98214 M 2.5167732,660.57646 1.330167,582.72234 m 23.26415,-40.96092 128.135233,0 m 26.76077,43.02866 0,75.78638 m 0,100.31588 0,201.21559 m -15.6533,0 -61.44251,0"
         style="fill:none;stroke:#000000;stroke-width:3.14945602px;stroke-linecap:butt;stroke-linejoin:miter;stroke-opacity:1"
         id="path3965"
         sodipodi:nodetypes="ccccccccccccccccccccccccccccccccccccccccccccccccccccccccc" />
      <path
         transform="translate(0,540.36218)"
         inkscape:connector-curvature="0"
         id="path4166"
         d="m 10.252521,404.278 0,-360.13131 0.818908,0"
         style="fill:none;stroke:#000000;stroke-width:3;stroke-linecap:butt;stroke-linejoin:miter;stroke-miterlimit:4;stroke-opacity:1;stroke-dasharray:none" />
      <path
         inkscape:connector-curvature="0"
         id="path4166-9"
         d="m 171.08086,945.64212 0,-360.13131 0.81891,0"
         style="fill:none;stroke:#000000;stroke-width:3;stroke-linecap:butt;stroke-linejoin:miter;stroke-miterlimit:4;stroke-opacity:1;stroke-dasharray:none" />
      <path
         transform="translate(0,540.36218)"
         inkscape:connector-curvature="0"
         inkscape:original-d="m 41.813503,345.30264 0,-301.15595"
         inkscape:path-effect="#path-effect4196"
         id="path4194"
         d="m 41.813503,345.30264 0,-301.15595"
         style="color:#000000;fill:none;stroke:#000000;stroke-width:3;stroke-linecap:butt;stroke-linejoin:miter;stroke-miterlimit:4;stroke-opacity:1;stroke-dasharray:none;stroke-dashoffset:0;marker:none;visibility:visible;display:inline;overflow:visible;enable-background:accumulate" />
      <path
         transform="translate(0,540.36218)"
         inkscape:connector-curvature="0"
         inkscape:original-d="m 140.7405,353.6041 0,-309.45741"
         inkscape:path-effect="#path-effect4200"
         id="path4198"
         d="m 140.7405,353.6041 0,-309.45741"
         style="color:#000000;fill:none;stroke:#000000;stroke-width:3;stroke-linecap:butt;stroke-linejoin:miter;stroke-miterlimit:4;stroke-opacity:1;stroke-dasharray:none;stroke-dashoffset:0;marker:none;visibility:visible;display:inline;overflow:visible;enable-background:accumulate" />
      <path
         transform="translate(0,540.36218)"
         inkscape:connector-curvature="0"
         id="path4202"
         d="m 103.53203,370.16561 0,-49.75001 7.70241,0.0127 7.70241,0.0127 21.33948,36.02233 21.33947,36.02234 0,13.71499 0,13.715 -29.04189,0 -29.04188,0 0,-49.75002 z"
         style="fill:#c8c4b7;fill-opacity:0;stroke-width:3;stroke-miterlimit:4;stroke-dasharray:none" />
      <path
         transform="translate(0,540.36218)"
         inkscape:connector-curvature="0"
         id="path4204"
         d="m 155.68115,375.20248 -13.25825,-22.44877 0,-153.29726 0,-153.297265 13.38452,0 13.38452,0 0,175.766545 c 0,96.6716 -0.0568,175.75731 -0.12627,175.74603 -0.0694,-0.0113 -6.09248,-10.12246 -13.38452,-22.46928 z"
         style="fill:#c8c4b7;fill-opacity:0;stroke-width:3;stroke-miterlimit:4;stroke-dasharray:none" />
      <path
         transform="translate(0,540.36218)"
         inkscape:connector-curvature="0"
         id="path4206"
         d="m 103.53203,370.16561 0,-49.75001 7.70241,0.0127 7.70241,0.0127 21.33948,36.02233 21.33947,36.02234 0,13.71499 0,13.715 -29.04189,0 -29.04188,0 0,-49.75002 z"
         style="fill:#c8c4b7;fill-opacity:0;stroke-width:3;stroke-miterlimit:4;stroke-dasharray:none" />
      <path
         transform="translate(0,540.36218)"
         inkscape:connector-curvature="0"
         id="path4208"
         d="m 103.53203,370.16561 0,-49.75001 7.70241,0.0127 7.70241,0.0127 21.33948,36.02233 21.33947,36.02234 0,13.71499 0,13.715 -29.04189,0 -29.04188,0 0,-49.75002 z"
         style="fill:#c8c4b7;fill-opacity:0;stroke-width:3;stroke-miterlimit:4;stroke-dasharray:none" />
      <path
         transform="translate(0,540.36218)"
         inkscape:connector-curvature="0"
         id="path4210"
         d="m 103.53203,370.16561 0,-49.75001 7.70241,0.0127 7.70241,0.0127 21.33948,36.02233 21.33947,36.02234 0,13.71499 0,13.715 -29.04189,0 -29.04188,0 0,-49.75002 z"
         style="fill:#c8c4b7;fill-opacity:0;stroke-width:3;stroke-miterlimit:4;stroke-dasharray:none" />
      <path
         transform="translate(0,540.36218)"
         inkscape:connector-curvature="0"
         id="path4212"
         d="m 18.693087,406.1523 0.01387,-13.76333 19.082529,-35.60788 19.082528,-35.60787 9.945485,-0.13695 9.945483,-0.13695 0,49.50816 0,49.50815 -29.041885,0 -29.041886,0 0.01387,-13.76333 z"
         style="fill:#c8c4b7;fill-opacity:0;stroke-width:3;stroke-miterlimit:4;stroke-dasharray:none" />
      <path
         transform="translate(0,540.36218)"
         inkscape:connector-curvature="0"
         id="path4214"
         d="m 129.72351,331.33574 -8.76635,-14.83875 -21.718281,0.24293 c -11.945053,0.13362 -26.906255,0.39028 -33.247115,0.57035 l -11.528836,0.32741 -5.511958,10.35407 -5.511959,10.35406 -0.0055,-146.09331 -0.0055,-146.093315 47.729708,0 47.729711,0 0,150.007655 c 0,82.50421 -0.0894,150.00765 -0.19876,150.00765 -0.10931,0 -4.14361,-6.67744 -8.9651,-14.83875 z"
         style="fill:#c8c4b7;fill-opacity:0;stroke-width:3;stroke-miterlimit:4;stroke-dasharray:none" />
      <path
         transform="translate(0,540.36218)"
         inkscape:connector-curvature="0"
         id="path4216"
         d="m 12.113222,221.2523 0,-175.093115 13.889598,0 13.889597,0 -0.0012,149.376305 -0.0012,149.37631 -13.603195,25.43158 C 18.805065,384.33075 12.555277,395.90331 12.398404,396.06018 12.241531,396.21705 12.11318,317.5535 12.11318,221.2523 z"
         style="fill:#c8c4b7;fill-opacity:0;stroke-width:3;stroke-miterlimit:4;stroke-dasharray:none" />
      <g
         id="g4240">
        <path
           style="fill:none;stroke:#000000;stroke-width:3;stroke-linecap:butt;stroke-linejoin:miter;stroke-miterlimit:4;stroke-opacity:1;stroke-dasharray:none"
           d="m 39.107143,541.76142 -0.535714,42.74745"
           id="path4032"
           inkscape:connector-curvature="0" />
        <path
           style="fill:none;stroke:#000000;stroke-width:3;stroke-linecap:butt;stroke-linejoin:miter;stroke-miterlimit:4;stroke-opacity:1;stroke-dasharray:none"
           d="m 135.89286,541.76142 0,42.74745"
           id="path4108"
           inkscape:path-effect="#path-effect4110"
           inkscape:original-d="m 135.89286,541.76142 0,42.74745"
           inkscape:connector-curvature="0" />
        <path
           style="fill:none;stroke:#000000;stroke-width:3;stroke-linecap:butt;stroke-linejoin:miter;stroke-miterlimit:4;stroke-opacity:1;stroke-dasharray:none"
           d="m 70.535714,584.50887 0,-42.74745"
           id="path4116"
           inkscape:path-effect="#path-effect4118"
           inkscape:original-d="m 70.535714,584.50887 0,-42.74745"
           inkscape:connector-curvature="0" />
        <path
           style="color:#000000;fill:none;stroke:#000000;stroke-width:3;stroke-linecap:butt;stroke-linejoin:miter;stroke-miterlimit:4;stroke-opacity:1;stroke-dasharray:none;stroke-dashoffset:0;marker:none;visibility:visible;display:inline;overflow:visible;enable-background:accumulate"
           d="m 105.71428,583.79458 0,-42.74745"
           id="path4120"
           inkscape:path-effect="#path-effect4122"
           inkscape:original-d="m 105.71428,583.79458 0,-42.74745"
           inkscape:connector-curvature="0" />
        <path
           style="color:#000000;fill:none;stroke:#000000;stroke-width:2;stroke-linecap:butt;stroke-linejoin:miter;stroke-miterlimit:4;stroke-opacity:1;stroke-dasharray:none;stroke-dashoffset:0;marker:none;visibility:visible;display:inline;overflow:visible;enable-background:accumulate"
           d="m 20.60305,548.95793 136.71855,0"
           id="path4128"
           inkscape:path-effect="#path-effect4130"
           inkscape:original-d="m 20.60305,548.95793 136.71855,0"
           inkscape:connector-curvature="0" />
        <path
           style="color:#000000;fill:none;stroke:#000000;stroke-width:3;stroke-linecap:butt;stroke-linejoin:miter;stroke-miterlimit:4;stroke-opacity:1;stroke-dasharray:none;stroke-dashoffset:0;marker:none;visibility:visible;display:inline;overflow:visible;enable-background:accumulate"
           d="M 36.870568,548.95793 1.330167,584.49834"
           id="path4132"
           inkscape:path-effect="#path-effect4134"
           inkscape:original-d="M 36.870568,548.95793 1.330167,584.49834"
           inkscape:connector-curvature="0" />
        <path
           style="color:#000000;fill:none;stroke:#000000;stroke-width:3;stroke-linecap:butt;stroke-linejoin:miter;stroke-miterlimit:4;stroke-opacity:1;stroke-dasharray:none;stroke-dashoffset:0;marker:none;visibility:visible;display:inline;overflow:visible;enable-background:accumulate"
           d="M 178.03052,582.43055 135.89286,548.29606"
           id="path4140"
           inkscape:path-effect="#path-effect4142"
           inkscape:original-d="M 178.03052,582.43055 135.89286,548.29606"
           inkscape:connector-curvature="0"
           sodipodi:nodetypes="cc" />
        <path
           style="fill:#c8c4b7;fill-opacity:0;stroke-width:3;stroke-miterlimit:4;stroke-dasharray:none"
           d="m 40.399791,572.00042 c 0.0013,-5.76418 0.149631,-13.03728 0.329708,-16.16244 l 0.327411,-5.68211 13.812428,0 13.812427,0 0,16.16245 0,16.16244 -14.142136,0 -14.142135,0 0.0023,-10.48034 -10e-7,0 z"
           id="path4218"
           inkscape:connector-curvature="0" />
        <path
           style="fill:#c8c4b7;fill-opacity:0;stroke-width:3;stroke-miterlimit:4;stroke-dasharray:none"
           d="m 107.57264,566.31832 0,-16.16245 13.38452,0 13.38452,0 0,16.16245 0,16.16244 -13.38452,0 -13.38452,0 0,-16.16244 z"
           id="path4220"
           inkscape:connector-curvature="0" />
      </g>
      <path
         transform="translate(0,540.36218)"
         inkscape:connector-curvature="0"
         id="path4222"
         d="m 155.68115,375.20248 -13.25825,-22.44877 0,-153.29726 0,-153.297265 13.38452,0 13.38452,0 0,175.766545 c 0,96.6716 -0.0568,175.75731 -0.12627,175.74603 -0.0694,-0.0113 -6.09248,-10.12246 -13.38452,-22.46928 z"
         style="fill:#c8c4b7;fill-opacity:0;stroke-width:3;stroke-miterlimit:4;stroke-dasharray:none" />
      <path
         transform="translate(0,540.36218)"
         inkscape:connector-curvature="0"
         id="path4224"
         d="m 155.68115,375.20248 -13.25825,-22.44877 0,-153.29726 0,-153.297265 13.38452,0 13.38452,0 0,175.766545 c 0,96.6716 -0.0568,175.75731 -0.12627,175.74603 -0.0694,-0.0113 -6.09248,-10.12246 -13.38452,-22.46928 z"
         style="fill:#c8c4b7;fill-opacity:0;stroke-width:3;stroke-miterlimit:4;stroke-dasharray:none" />
      <path
         transform="translate(0,540.36218)"
         inkscape:connector-curvature="0"
         id="path4226"
         d="m 155.68115,375.20248 -13.25825,-22.44877 0,-153.29726 0,-153.297265 13.38452,0 13.38452,0 0,175.766545 c 0,96.6716 -0.0568,175.75731 -0.12627,175.74603 -0.0694,-0.0113 -6.09248,-10.12246 -13.38452,-22.46928 z"
         style="fill:#c8c4b7;fill-opacity:0;stroke-width:3;stroke-miterlimit:4;stroke-dasharray:none" />
      <path
         transform="translate(0,540.36218)"
         inkscape:connector-curvature="0"
         id="path4228"
         d="m 15.526198,429.89088 -0.12998,-32.45115 -6.3759954,11.8693 c -5.6243958,10.47014 -6.5323534,11.88813 -7.7024133,12.0291 l -1.3264175,0.15982 0,-189.43715 c 0,-174.405942 0.0650213,-189.437148 0.81945832,-189.437148 0.63430428,0 0.69044018,-0.155458 0.24844748,-0.688026 C 0.61248167,41.397246 2.9620109,36.920688 11.861724,21.353767 19.699039,7.6451372 23.469116,1.5060775 23.987645,1.6083453 c 0.413866,0.081625 0.752484,-0.2024799 0.752484,-0.63134536 0,-0.69884686 6.629535,-0.77975534 63.892149,-0.77975534 44.046852,0 63.892152,0.16375694 63.892152,0.5272172 0,0.2899694 0.35046,0.4604327 0.7788,0.3788072 1.17248,-0.22343124 27.17031,41.969746 26.4184,42.875747 -0.41778,0.503402 -0.35277,0.664941 0.26761,0.664941 0.75443,0 0.81946,14.950247 0.81946,188.393453 l 0,188.39345 -1.26269,0 c -0.93286,0 -1.26269,-0.26826 -1.26269,-1.02696 0,-0.56482 -2.89788,-5.91024 -6.43973,-11.8787 l -6.43972,-10.85176 -0.12998,32.3343 -0.12998,32.33429 -32.32117,0 -32.32117,0 0,-33.46991 0,-33.46992 -5.555157,-5.53793 -5.555152,-5.53793 -4.798912,4.77895 -4.798906,4.77896 0,34.22889 0,34.22889 -32.068632,0 -32.068632,0 -0.129981,-32.45115 z m 98.612432,11.4734 0,-18.45237 -5.42957,0.14336 -5.42957,0.14335 -0.13257,18.30902 -0.13257,18.30901 5.56214,0 5.56214,0 0,-18.45237 z m 11.61675,0.0171 0,-18.43528 -4.54568,0 -4.54569,0 0,18.43528 0,18.43529 4.54569,0 4.54568,0 0,-18.43529 z m 11.61676,0 0,-18.43528 -4.54569,0 -4.54568,0 0,18.43528 0,18.43529 4.54568,0 4.54569,0 0,-18.43529 z m 13.13198,0 0,-18.43528 -5.3033,0 -5.3033,0 0,18.43528 0,18.43529 5.3033,0 5.3033,0 0,-18.43529 z m 11.61676,0 0,-18.43528 -4.54569,0 -4.54569,0 0,18.43528 0,18.43529 4.54569,0 4.54569,0 0,-18.43529 z m -133.340141,-0.25252 0,-18.18274 -5.303301,0 -5.3033,0 0,18.18274 0,18.18275 5.3033,0 5.303301,0 0,-18.18275 z m 11.111678,0 0,-18.18274 -4.293148,0 -4.293148,0 0,18.18274 0,18.18275 4.293148,0 4.293148,0 0,-18.18275 z m 11.616755,0 0,-18.18274 -4.293149,0 -4.293148,0 0,18.18274 0,18.18275 4.293148,0 4.293149,0 0,-18.18275 z m 13.131983,0 0,-18.18274 -5.050763,0 -5.050763,0 0,18.18274 0,18.18275 5.050763,0 5.050763,0 0,-18.18275 z m 12.626907,-0.0183 0,-18.20104 -4.924494,0.14456 -4.924494,0.14456 -0.132648,18.05648 -0.132648,18.05647 5.057142,0 5.057142,0 0,-18.20103 z m 0,-70.70264 0,-50.0128 -10.402066,0.13652 -10.402061,0.13651 -19.144899,35.74999 -19.144898,35.74998 0,14.1263 0,14.12629 29.546962,0 29.546962,0 0,-50.0128 0,10e-6 z m 84.819168,35.74439 -0.0336,-14.2684 -21.31511,-35.86042 -21.31511,-35.86041 -8.19821,-0.13878 -8.19821,-0.13879 0,50.2676 0,50.2676 29.54696,0 29.54697,0 -0.0336,-14.2684 -1e-5,0 z M 6.2013172,409.1744 9.1282468,403.50065 9.1055058,224.57738 9.0827647,45.654109 l -3.2829958,0 -3.2829957,0 0,184.605381 c 0,101.53295 0.1704632,184.60161 0.3788072,184.59702 0.2083439,-0.005 1.6959254,-2.56155 3.3057368,-5.68211 l 0,0 z M 178.28332,229.50187 l 0,-183.847761 -3.03046,0 -3.03046,0 0,179.268111 0,179.26812 2.65165,4.57293 c 1.45841,2.5151 2.82211,4.57595 3.03046,4.57964 0.20834,0.004 0.37881,-82.72477 0.37881,-183.84104 z m -8.5863,-6.81853 0,-177.029231 -13.76333,0.117663 -13.76333,0.117663 13.51292,0.143129 13.51291,0.143129 -0.004,176.137097 c -0.003,96.8754 -0.004,176.4212 -0.002,176.76844 0.001,0.34724 0.11577,0.63135 0.25467,0.63135 0.1389,0 0.25254,-79.66316 0.25254,-177.02924 l -3.2e-4,0 z m -143.514632,149.17095 14.215106,-26.5956 0,-149.80229 0,-149.802291 -14.394674,0 -14.394674,0 0,176.608341 c 0,97.13458 0.08081,176.51363 0.179568,176.39789 0.09876,-0.11575 6.576366,-12.17847 14.394674,-26.80605 l 0,0 z m 129.301802,2.91688 c -7.3226,-12.36027 -13.37562,-22.30192 -13.45114,-22.09255 -0.1787,0.4954 26.24274,45.08801 26.53927,44.79148 0.12414,-0.12414 -5.76552,-10.33866 -13.08813,-22.69893 z m -54.98262,-19.25277 0,-35.60787 -4.798224,0 -4.798225,0 0,31.17846 0,31.17847 4.408886,4.42941 c 2.424887,2.43618 4.584088,4.42941 4.798223,4.42941 0.21414,0 0.38934,-16.02354 0.38934,-35.60788 z m -16.276068,30.41897 3.649161,-3.67368 0,-31.17658 0,-31.17658 -3.241685,0 c -1.78293,0 -3.601204,0.13795 -4.04061,0.30657 -0.717739,0.27542 -0.798925,3.81687 -0.798925,34.85026 0,18.99903 0.17615,34.54369 0.391449,34.54369 0.215294,0 2.033569,-1.65315 4.04061,-3.67368 z m 45.976118,-53.83475 -9.24446,-15.70182 -5.05076,0.0928 -5.05077,0.0928 4.80999,0.16374 4.80998,0.16373 9.26949,15.66103 c 5.09822,8.61357 9.36658,15.56395 9.48524,15.44528 0.11867,-0.11866 -3.94425,-7.28157 -9.02871,-15.91757 l 0,0 z m -80.304086,-4.61595 5.033156,-9.34391 8.011959,-0.27863 8.011959,-0.27863 -8.245289,0.0261 -8.24529,0.0261 -5.512508,10.35407 -5.51251,10.35406 -0.0055,-146.09075 L 43.427951,46.164311 91.283928,46.032886 139.1399,45.90146 91.03139,45.777785 42.922875,45.654109 42.945199,193.01011 c 0.02188,144.45703 0.04098,147.32122 0.970752,145.58824 0.521636,-0.97227 3.213349,-5.97253 5.981583,-11.11168 l 0,0 z m 50.982846,-10.4797 c -5.486394,-0.0815 -14.464124,-0.0815 -19.950515,0 -5.486391,0.0815 -0.997526,0.14825 9.975256,0.14825 10.972779,0 15.461649,-0.0667 9.975259,-0.14825 z M 37.525398,26.111652 c 0.176567,-9.0816 0.259875,-16.5731566 0.185128,-16.6479038 -0.07475,-0.074747 -7.624882,7.3556528 -16.778075,16.5119998 l -16.6421712,16.647904 16.4570432,0 16.457043,0 0.321032,-16.512 z m 31.661443,-0.155517 0,-16.6675175 -14.31673,0 -14.316728,0 -0.328435,6.4397225 c -0.180639,3.541847 -0.329356,11.04223 -0.330483,16.667517 l -0.002,10.227795 14.647212,0 14.647212,0 0,-16.667517 z m 35.355339,0 0,-16.6675175 -16.414979,0 -16.414978,0 0,16.6675175 0,16.667517 16.414978,0 16.414979,0 0,-16.667517 z m 30.30458,0 0,-16.6675175 -13.8896,0 -13.8896,0 0,16.6675175 0,16.667517 13.8896,0 13.8896,0 0,-16.667517 z m 41.41625,16.447423 c 0,-0.121052 -8.3527,-6.975001 -18.56155,-15.230998 -10.20886,-8.255997 -18.9593,-15.351637 -19.44544,-15.768089 -0.83912,-0.718843 -0.88388,0.05242 -0.88388,15.230997 l 0,15.988184 19.44543,0 c 10.69499,0 19.44544,-0.09904 19.44544,-0.220094 l 0,0 z M 28.195637,9.3986605 C 24.81288,9.3202878 21.863616,9.4377186 21.641718,9.6596173 21.279954,10.021381 6.7191184,35.355512 5.4533694,37.825427 5.1686514,38.381011 11.553041,32.244334 19.640902,24.188368 L 34.346104,9.5411557 28.195637,9.3986605 z M 171.61968,34.130151 c -0.64077,-1.060131 -4.34703,-7.081387 -8.23611,-13.38057 l -7.07107,-11.45306 -8.31572,-0.00394 c -7.18535,-0.00343 -8.21519,0.093304 -7.57615,0.71152 0.98124,0.949255 32.00991,26.043796 32.20921,26.049296 0.0852,0.0024 -0.36938,-0.863104 -1.01016,-1.923234 l 0,-1.2e-5 z M 37.872112,5.2480073 l 0,-2.5253813 -6.270272,0 -6.270272,0 -1.305872,2.3364591 c -0.718229,1.2850524 -1.305872,2.421474 -1.305872,2.5253813 0,0.1039074 3.409265,0.1889223 7.576144,0.1889223 l 7.576144,0 0,-2.5253814 z m 31.314729,0 0,-2.5253813 -14.394674,0 -14.394673,0 0,2.5253813 0,2.5253814 14.394673,0 14.394674,0 0,-2.5253814 z m 35.355339,0 0,-2.5253813 -16.414979,0 -16.414978,0 0,2.5253813 0,2.5253814 16.414978,0 16.414979,0 0,-2.5253814 z m 30.30458,0 0,-2.5253813 -13.8896,0 -13.8896,0 0,2.5253813 0,2.5253814 13.8896,0 13.8896,0 0,-2.5253814 z m 20.20305,2.2934292 c 0,-0.1275737 -0.62338,-1.2639953 -1.38529,-2.5253814 l -1.38528,-2.2934291 -7.45355,0 -7.45355,0 0,2.5253813 0,2.5253814 8.83883,0 c 4.86136,0 8.83884,-0.1043786 8.83884,-0.2319522 z"
         style="fill:#c8c4b7;fill-opacity:0;stroke-width:3;stroke-miterlimit:4;stroke-dasharray:none" />
    </g>
    <path
       style="fill:#c8c4b7;fill-opacity:0;stroke-width:3;stroke-miterlimit:4;stroke-dasharray:none"
       d="m 290.60038,885.64511 -9.2503,-15.62863 -15.24414,0.23525 c -8.38428,0.12939 -23.20074,0.36902 -32.92547,0.53252 l -17.68133,0.29727 -5.67036,10.67669 -5.67036,10.67669 -0.008,-146.85092 -0.008,-146.85093 47.98225,0 47.98224,0 0,151.27035 c 0,83.19868 -0.0576,151.27034 -0.12802,151.27034 -0.0704,0 -4.29065,-7.03288 -9.37833,-15.62863 z"
       id="path4280"
       inkscape:connector-curvature="0" />
    <path
       style="fill:#c8c4b7;fill-opacity:0;stroke-width:3;stroke-miterlimit:4;stroke-dasharray:none"
       d="m 316.50387,929.43174 -13.61922,-22.8547 0,-153.79572 0,-153.79573 13.76333,-0.13438 13.76333,-0.13439 0,176.78481 c 0,97.23165 -0.0649,176.78481 -0.14411,176.78481 -0.0793,0 -6.27277,-10.28461 -13.76333,-22.8547 l 0,0 z"
       id="path4282"
       inkscape:connector-curvature="0" />
    <path
       style="fill:#c8c4b7;fill-opacity:0;stroke-width:3;stroke-miterlimit:4;stroke-dasharray:none"
       d="m 316.50387,929.43174 -13.61922,-22.8547 0,-153.79572 0,-153.79573 13.76333,-0.13438 13.76333,-0.13439 0,176.78481 c 0,97.23165 -0.0649,176.78481 -0.14411,176.78481 -0.0793,0 -6.27277,-10.28461 -13.76333,-22.8547 l 0,0 z"
       id="path4284"
       inkscape:connector-curvature="0" />
    <path
       style="fill:#c8c4b7;fill-opacity:0;stroke-width:3;stroke-miterlimit:4;stroke-dasharray:none"
       d="m 267.78185,579.28762 0,-16.41498 13.63706,0 13.63706,0 0,16.41498 0,16.41498 -13.63706,0 -13.63706,0 0,-16.41498 z"
       id="path4286"
       inkscape:connector-curvature="0" />
    <path
       style="fill:#c8c4b7;fill-opacity:0;stroke-width:3;stroke-miterlimit:4;stroke-dasharray:none"
       d="m 267.78185,579.28762 0,-16.41498 13.63706,0 13.63706,0 0,16.41498 0,16.41498 -13.63706,0 -13.63706,0 0,-16.41498 z"
       id="path4288"
       inkscape:connector-curvature="0" />
    <path
       style="fill:#c8c4b7;fill-opacity:1;stroke-width:3;stroke-miterlimit:4;stroke-dasharray:none"
       d="m 264.24632,923.24456 0,-50.25509 7.71615,0 7.71615,0 21.57827,36.3822 21.57828,36.38221 0,13.87288 0,13.87289 -29.29443,0 -29.29442,0 0,-50.25509 z"
       id="path4300"
       inkscape:connector-curvature="0" />
    <path
       style="fill:#c8c4b7;fill-opacity:1;stroke-width:3;stroke-miterlimit:4;stroke-dasharray:none"
       d="m 263.74124,923.24456 0,-50.25509 8.20749,0.0197 8.20749,0.0197 21.33947,36.0646 21.33948,36.0646 0,14.17079 0,14.1708 -29.54697,0 -29.54696,0 0,-50.25509 z"
       id="path4302"
       inkscape:connector-curvature="0" />
    <path
       style="fill:#c8c4b7;fill-opacity:1;stroke-width:3;stroke-miterlimit:4;stroke-dasharray:none"
       d="m 179.3935,959.17422 0,-14.32542 18.89079,-35.29832 18.8908,-35.29832 2.44868,-0.33456 c 1.34677,-0.18401 6.0284,-0.35447 10.40363,-0.37881 l 7.95495,-0.0443 0,50.00256 0,50.00255 -29.29443,0 -29.29442,0 0,-14.32543 z"
       id="path4304"
       inkscape:connector-curvature="0" />
    <path
       style="fill:#c8c4b7;fill-opacity:1;stroke-width:3;stroke-miterlimit:4;stroke-dasharray:none"
       d="m 178.90784,959.23124 0.0194,-14.2684 19.0965,-35.60788 19.09651,-35.60788 10.43104,-0.13651 10.43104,-0.13652 0,50.0128 0,50.0128 -29.54696,0 -29.54696,0 0.0194,-14.26841 z"
       id="path4306"
       inkscape:connector-curvature="0" />
    <path
       style="fill:#928970;fill-opacity:1;stroke-width:3;stroke-miterlimit:4;stroke-dasharray:none"
       d="m 228.3859,994.46031 0,-17.93021 4.79822,0 4.79823,0 0,17.93021 0,17.93019 -4.79823,0 -4.79822,0 0,-17.93019 z"
       id="path4308"
       inkscape:connector-curvature="0" />
    <path
       style="fill:#928970;fill-opacity:1;stroke-width:3;stroke-miterlimit:4;stroke-dasharray:none"
       d="m 215.25391,994.46031 0,-17.93021 5.05077,0 5.05076,0 0,17.93021 0,17.93019 -5.05076,0 -5.05077,0 0,-17.93019 z"
       id="path4310"
       inkscape:connector-curvature="0" />
    <path
       style="fill:#928970;fill-opacity:1;stroke-width:3;stroke-miterlimit:4;stroke-dasharray:none"
       d="m 203.63716,994.46031 0,-17.93021 4.29315,0 4.29315,0 0,17.93021 0,17.93019 -4.29315,0 -4.29315,0 0,-17.93019 z"
       id="path4312"
       inkscape:connector-curvature="0" />
    <path
       style="fill:#928970;fill-opacity:1;stroke-width:3;stroke-miterlimit:4;stroke-dasharray:none"
       d="m 192.02041,994.46031 0,-17.93021 4.29314,0 4.29315,0 0,17.93021 0,17.93019 -4.29315,0 -4.29314,0 0,-17.93019 z"
       id="path4314"
       inkscape:connector-curvature="0" />
    <path
       style="fill:#928970;fill-opacity:1;stroke-width:3;stroke-miterlimit:4;stroke-dasharray:none"
       d="m 179.3935,994.46031 0,-17.93021 4.79822,0 4.79823,0 0,17.93021 0,17.93019 -4.79823,0 -4.79822,0 0,-17.93019 z"
       id="path4316"
       inkscape:connector-curvature="0" />
    <path
       style="fill:#928970;fill-opacity:1;stroke-width:3;stroke-miterlimit:4;stroke-dasharray:none"
       d="m 264.24632,994.71285 0,-18.18275 5.3033,0 5.3033,0 0,18.18275 0,18.18275 -5.3033,0 -5.3033,0 0,-18.18275 z"
       id="path4318"
       inkscape:connector-curvature="0" />
    <path
       style="fill:#928970;fill-opacity:1;stroke-width:3;stroke-miterlimit:4;stroke-dasharray:none"
       d="m 277.88338,994.73328 0,-18.20318 4.29953,0 4.29952,0 -0.13265,18.05648 -0.13264,18.05652 -4.16688,0.1467 -4.16688,0.1467 0,-18.20322 z"
       id="path4320"
       inkscape:connector-curvature="0" />
    <path
       style="fill:#928970;fill-opacity:1;stroke-width:3;stroke-miterlimit:4;stroke-dasharray:none"
       d="m 300.61181,994.71285 0,-18.18275 5.05076,0 5.05076,0 0,18.18275 0,18.18275 -5.05076,0 -5.05076,0 0,-18.18275 z"
       id="path4322"
       inkscape:connector-curvature="0" />
    <path
       style="fill:#928970;fill-opacity:1;stroke-width:3;stroke-miterlimit:4;stroke-dasharray:none"
       d="m 288.99506,994.71285 0,-18.18275 4.29314,0 4.29315,0 0,18.18275 0,18.18275 -4.29315,0 -4.29314,0 0,-18.18275 z"
       id="path4324"
       inkscape:connector-curvature="0" />
    <path
       style="fill:#928970;fill-opacity:1;stroke-width:3;stroke-miterlimit:4;stroke-dasharray:none"
       d="m 313.74379,994.71285 0,-18.18275 4.54569,0 4.54569,0 0,18.18275 0,18.18275 -4.54569,0 -4.54569,0 0,-18.18275 z"
       id="path4326"
       inkscape:connector-curvature="0" />
    <path
       style="fill:#464235;fill-opacity:1;stroke-width:3;stroke-miterlimit:4;stroke-dasharray:none"
       d="m 256.28139,939.52378 -4.66198,-4.68145 0,-30.67389 0,-30.6739 4.79822,0 4.79823,0 0,35.35534 c 0,19.44544 -0.0613,35.35534 -0.13624,35.35534 -0.0749,0 -2.23414,-2.10665 -4.79823,-4.68144 l 0,0 z"
       id="path4344"
       inkscape:connector-curvature="0" />
    <path
       style="fill:#464235;fill-opacity:1;stroke-width:3;stroke-miterlimit:4;stroke-dasharray:none"
       d="m 241.0128,908.2059 0,-34.71136 3.78808,0 3.78807,0 0,30.94857 0,30.94856 -3.78807,3.76279 -3.78808,3.76279 0,-34.71135 z"
       id="path4346"
       inkscape:connector-curvature="0" />
    <path
       style="fill:#464235;fill-opacity:1;stroke-width:3;stroke-miterlimit:4;stroke-dasharray:none"
       d="m 335.70925,961.75662 -2.52002,-4.16688 0,-179.30207 0,-179.30208 2.77792,0 2.77792,0 0.12695,183.46896 c 0.0698,100.90792 -0.0462,183.46895 -0.2579,183.46895 -0.21167,0 -1.51887,-1.87509 -2.90487,-4.16688 l 0,0 z"
       id="path4348"
       inkscape:connector-curvature="0" />
    <path
       style="fill:#464235;fill-opacity:1;stroke-width:3;stroke-miterlimit:4;stroke-dasharray:none"
       d="m 163.74222,783.18696 -0.006,-184.50432 2.90419,0.15148 2.90419,0.15147 0.12697,178.68194 0.12698,178.68193 -1.71844,3.39807 c -0.94514,1.86892 -2.30643,4.42083 -3.02508,5.6709 l -1.30664,2.27284 -0.006,-184.50431 0,0 z"
       id="path4350"
       inkscape:connector-curvature="0" />
    <path
       style="fill:#464235;fill-opacity:1;stroke-width:3;stroke-miterlimit:4;stroke-dasharray:none"
       d="m 200.77757,584.71719 c 0.18245,-6.04198 0.33229,-13.42872 0.33297,-16.41498 l 0.001,-5.42957 14.39467,0 14.39468,0 0,16.41498 0,16.41498 -14.72765,0 -14.72764,0 0.33173,-10.98541 z"
       id="path4354"
       inkscape:connector-curvature="0" />
    <path
       style="fill:#464235;fill-opacity:1;stroke-width:3;stroke-miterlimit:4;stroke-dasharray:none"
       d="m 181.66634,579.54016 c 8.88609,-8.88935 16.21468,-16.16244 16.28575,-16.16244 0.0711,0 0.12923,7.27309 0.12923,16.16244 l 0,16.16244 -16.28575,0 -16.28575,0 16.15652,-16.16244 z"
       id="path4356"
       inkscape:connector-curvature="0" />
    <path
       style="fill:#464235;fill-opacity:1;stroke-width:3;stroke-miterlimit:4;stroke-dasharray:none"
       d="m 232.42651,579.28762 0,-16.41498 16.41498,0 16.41498,0 0,16.41498 0,16.41498 -16.41498,0 -16.41498,0 0,-16.41498 z"
       id="path4358"
       inkscape:connector-curvature="0" />
    <path
       style="fill:#464235;fill-opacity:1;stroke-width:3;stroke-miterlimit:4;stroke-dasharray:none"
       d="m 267.78185,579.28762 0,-16.41498 13.63706,0 13.63706,0 0,16.41498 0,16.41498 -13.63706,0 -13.63706,0 0,-16.41498 z"
       id="path4360"
       inkscape:connector-curvature="0" />
    <path
       style="fill:#464235;fill-opacity:1;stroke-width:3;stroke-miterlimit:4;stroke-dasharray:none"
       d="m 298.08643,579.98339 c 0,-12.49829 0.12936,-15.61946 0.63134,-15.23239 3.96696,3.05887 37.75445,30.55425 37.75445,30.72359 0,0.12541 -8.6368,0.22801 -19.19289,0.22801 l -19.1929,0 0,-15.71921 z"
       id="path4362"
       inkscape:connector-curvature="0" />
    <path
       style="fill:#00657b;fill-opacity:1;stroke-width:3;stroke-miterlimit:4;stroke-dasharray:none"
       d="m 298.07042,580.01944 0,-15.75668 0.30751,0.24137 c 0.16913,0.13275 0.28702,0.25557 0.26199,0.27294 -0.17797,0.12341 -0.28219,0.80096 -0.38846,2.52538 -0.0433,0.70231 -0.079,6.06756 -0.0981,14.72613 l -0.03,13.62127 14.69964,-6e-5 c 13.62246,-5e-5 22.78867,-0.0708 23.31381,-0.17988 l 0.21839,-0.0454 -0.77159,-0.65415 c -0.42437,-0.35979 -0.75865,-0.66709 -0.74285,-0.68289 0.0215,-0.0215 1.664,1.26687 2.08577,1.63612 0.033,0.0289 -8.69615,0.0525 -19.39809,0.0525 l -19.45806,0 0,-15.75668 z"
       id="path4366"
       inkscape:connector-curvature="0" />
    <path
       style="fill:#ddc24b;fill-opacity:1;stroke-width:3;stroke-miterlimit:4;stroke-dasharray:none"
       d="m 290.69017,885.85075 -9.2189,-15.57982 -32.20967,0.21677 c -17.71532,0.11922 -32.57511,0.33626 -33.02176,0.4823 -0.44665,0.14605 -3.2774,4.95029 -6.29055,10.67609 -3.01316,5.72581 -5.62093,10.41056 -5.79506,10.41056 -0.17412,0 -0.31659,-66.05357 -0.31659,-146.78572 l 0,-146.78571 47.87956,0 c 37.64651,0 47.95208,0.19083 48.21886,0.89286 0.18661,0.49107 0.25688,68.65377 0.15616,151.47267 l -0.18315,150.57981 -9.2189,-15.57981 z"
       id="path4370"
       inkscape:connector-curvature="0" />
    <path
       style="fill:#ddab4b;fill-opacity:1;stroke-width:3;stroke-miterlimit:4;stroke-dasharray:none"
       d="m 316.51622,929.45509 -13.39286,-22.59857 0,-154.18565 0,-154.18565 13.57143,0 13.57143,0 0,176.78571 c 0,97.23215 -0.0804,176.78505 -0.17858,176.78423 -0.0982,-7.2e-4 -6.20535,-10.17086 -13.57142,-22.60007 z"
       id="path4378"
       inkscape:connector-curvature="0" />
    <path
       style="fill:#ddab4b;fill-opacity:1;stroke-width:3;stroke-miterlimit:4;stroke-dasharray:none"
       d="m 172.43767,775.09236 -0.0286,-176.60714 14.28571,0 14.28571,0 0,149.97351 0,149.97351 -13.11892,24.49077 c -7.21541,13.46993 -13.63111,25.45507 -14.25712,26.63364 -1.04417,1.96585 -1.14055,-12.44544 -1.16679,-174.46429 z"
       id="path4380"
       inkscape:connector-curvature="0" />
    <path
       style="fill:#ddab4b;fill-opacity:1;stroke-width:3;stroke-miterlimit:4;stroke-dasharray:none"
       d="m 321.69479,579.80536 c -5.30357,-4.33959 -12.18054,-9.94762 -15.28216,-12.46229 l -5.63929,-4.57213 8.143,0 8.143,0 2.91681,4.82143 c 1.60425,2.65178 5.06009,8.27678 7.67964,12.5 2.61956,4.22321 4.51961,7.6616 4.22234,7.64087 -0.29727,-0.0207 -4.87977,-3.58828 -10.18334,-7.92788 z"
       id="path4384"
       inkscape:connector-curvature="0" />
    <path
       style="fill:#ddab4b;fill-opacity:1;stroke-width:3;stroke-miterlimit:4;stroke-dasharray:none"
       d="m 167.6295,589.07196 c 0.48903,-1.43056 13.92657,-24.98075 14.71899,-25.79601 0.3028,-0.31153 3.1773,-0.47224 6.38777,-0.35714 l 5.83722,0.20927 -13.67692,13.57143 c -7.52231,7.46428 -13.49248,13.03189 -13.26706,12.37245 z"
       id="path4388"
       inkscape:connector-curvature="0" />
    <path
       style="fill:#22a9b6;fill-opacity:1;stroke-width:3;stroke-miterlimit:4;stroke-dasharray:none"
       d="m 267.85904,558.52331 0,-2.32142 13.66071,0 13.66071,0 0,2.32142 0,2.32143 -13.66071,0 -13.66071,0 0,-2.32143 z"
       id="path4390"
       inkscape:connector-curvature="0" />
    <path
       style="fill:#22a9b6;fill-opacity:1;stroke-width:3;stroke-miterlimit:4;stroke-dasharray:none"
       d="m 298.25189,560.63046 c -0.14245,-0.14246 -0.21428,-0.92064 -0.21428,-2.32143 l 0,-2.10714 7.36607,10e-5 7.36607,1.1e-4 1.33929,2.17768 c 0.7366,1.19772 1.36607,2.24232 1.3988,2.32132 0.10281,0.24808 -17.00727,0.17803 -17.25595,-0.0706 z"
       id="path4392"
       inkscape:connector-curvature="0" />
    <path
       style="fill:#22a9b6;fill-opacity:1;stroke-width:3;stroke-miterlimit:4;stroke-dasharray:none"
       d="m 232.68046,558.52331 0,-2.32142 16.16071,0 16.16072,0 0,2.32142 0,2.32143 -16.16072,0 -16.16071,0 0,-2.32143 z"
       id="path4394"
       inkscape:connector-curvature="0" />
    <path
       style="fill:#22a9b6;fill-opacity:1;stroke-width:3;stroke-miterlimit:4;stroke-dasharray:none"
       d="m 201.25189,558.52331 0,-2.32142 14.28571,0 14.28572,0 0,2.32142 0,2.32143 -14.28572,0 -14.28571,0 0,-2.32143 z"
       id="path4396"
       inkscape:connector-curvature="0" />
    <path
       style="fill:#22a9b6;fill-opacity:1;stroke-width:3;stroke-miterlimit:4;stroke-dasharray:none"
       d="m 183.75189,560.75453 c 0,-0.0496 0.5722,-1.09426 1.27155,-2.32143 l 1.27156,-2.23121 6.04987,0 6.04988,0 0,1.2238 c 0,0.67309 -0.0516,1.71774 -0.11473,2.32143 l -0.11472,1.09762 -7.20671,0 c -3.96369,0 -7.2067,-0.0406 -7.2067,-0.0902 z"
       id="path4398"
       inkscape:connector-curvature="0" />
    <text
       xml:space="preserve"
       style="font-size:20.22384834px;font-style:normal;font-variant:normal;font-weight:bold;font-stretch:normal;line-height:125%;letter-spacing:0px;word-spacing:0px;fill:#464235;fill-opacity:1;stroke:#000000;stroke-width:0.50559622;stroke-miterlimit:4;stroke-opacity:1;stroke-dasharray:none;font-family:Arial;-inkscape-font-specification:Arial Bold"
       x="250.26143"
       y="624.87061"
       id="text4400"
       sodipodi:linespacing="125%"
       transform="scale(1.0078174,0.99224324)"><tspan
         sodipodi:role="line"
         id="tspan4402"
         x="250.26143"
         y="624.87061"
         style="font-size:11.12311649px;font-style:normal;font-variant:normal;font-weight:bold;font-stretch:normal;text-align:center;text-anchor:middle;fill:#464235;fill-opacity:1;stroke:#000000;stroke-width:0.50559622;stroke-miterlimit:4;stroke-opacity:1;stroke-dasharray:none;font-family:Arial;-inkscape-font-specification:Arial Bold">YUTAMO</tspan></text>
    <path
       style="fill:#464235;fill-opacity:1;stroke:#000000;stroke-width:0.04464286;stroke-miterlimit:4;stroke-opacity:1;stroke-dasharray:none"
       d="m 198.03769,572.23438 c -0.007,-2.51674 -0.0294,-5.5 -0.0491,-6.62947 l -0.0359,-2.05357 0.12838,-0.13307 0.12839,-0.13307 2.3e-4,0.64646 c 2.1e-4,0.54518 -0.11145,9.72574 -0.1474,12.11968 -0.006,0.41741 -0.0173,-1.30022 -0.0246,-3.81696 z"
       id="path4412"
       inkscape:connector-curvature="0" />
    <path
       style="fill:#464235;fill-opacity:1;stroke:#000000;stroke-width:0.06313454;stroke-miterlimit:4;stroke-opacity:1;stroke-dasharray:none"
       d="m 200.48511,595.48789 c 0,-0.10549 0.071,-2.51329 0.1578,-5.35066 0.30793,-10.06687 0.41584,-15.08266 0.45428,-21.1161 l 0.0389,-6.10827 14.35328,0 14.35327,0 0,16.38341 0,16.38341 -14.67877,0 -14.67878,0 0,-0.19179 z"
       id="path4414"
       inkscape:connector-curvature="0" />
    <path
       style="fill:#464235;fill-opacity:1;stroke:#000000;stroke-width:0.06313454;stroke-miterlimit:4;stroke-opacity:1;stroke-dasharray:none"
       d="m 200.54835,595.41136 c 5e-5,-0.11285 0.0283,-1.07171 0.0629,-2.13079 0.31611,-9.69793 0.56641,-21.8404 0.56772,-27.54244 l 6.4e-4,-2.76213 14.29997,0 14.29998,0 0,16.32027 0,16.32028 -14.61565,0 -14.61564,0 1e-4,-0.20519 0,0 z"
       id="path4416"
       inkscape:connector-curvature="0" />
    <path
       style="fill:#464235;fill-opacity:1;stroke:#000000;stroke-width:0.06313454;stroke-miterlimit:4;stroke-opacity:1;stroke-dasharray:none"
       d="m 200.61157,595.3798 c 1.1e-4,-0.0955 0.0564,-2.03452 0.12497,-4.30894 0.26788,-8.87758 0.4228,-16.30671 0.48417,-23.21772 l 0.0427,-4.81401 14.22647,0 14.22647,0 0,16.25714 0,16.25715 -14.55251,0 -14.55251,0 1.9e-4,-0.17362 0,0 z"
       id="path4418"
       inkscape:connector-curvature="0" />
    <path
       style="fill:#464235;fill-opacity:1;stroke:#000000;stroke-width:0.04464286;stroke-miterlimit:4;stroke-opacity:1;stroke-dasharray:none"
       d="m 298.09231,578.87152 c -0.006,-11.6256 0.004,-14.53837 0.0484,-14.5118 0.19774,0.11781 0.47478,0.39319 0.43907,0.43644 -0.0791,0.0958 -0.17963,0.59391 -0.24859,1.23201 -0.12904,1.19382 -0.16126,3.75331 -0.19644,15.60268 l -0.035,11.78572 -0.007,-14.54505 z"
       id="path4436"
       inkscape:connector-curvature="0" />
    <text
       xml:space="preserve"
       style="font-size:20.22384834px;font-style:normal;font-variant:normal;font-weight:bold;font-stretch:normal;line-height:133.99999142%;letter-spacing:0px;word-spacing:0px;fill:#464235;fill-opacity:1;stroke:#000000;stroke-width:0.50559622;stroke-miterlimit:4;stroke-opacity:1;stroke-dasharray:none;font-family:Arial;-inkscape-font-specification:Arial Bold"
       x="249.8761"
       y="870.92426"
       id="text4400-2"
       sodipodi:linespacing="133.99999%"
       transform="scale(1.0078174,0.99224324)"><tspan
         sodipodi:role="line"
         x="249.8761"
         y="870.92426"
         style="font-size:14px;font-style:normal;font-variant:normal;font-weight:bold;font-stretch:normal;text-align:center;line-height:134.99999046%;text-anchor:middle;fill:#464235;fill-opacity:1;stroke:#000000;stroke-width:0.50559622;stroke-miterlimit:4;stroke-opacity:1;stroke-dasharray:none;font-family:Arial;-inkscape-font-specification:Arial Bold"
         id="tspan4459">DSTYR-C170</tspan></text>
    <path
       style="color:#000000;fill:none;stroke:#000000;stroke-width:3;stroke-linecap:butt;stroke-linejoin:miter;stroke-miterlimit:4;stroke-opacity:1;stroke-dasharray:none;stroke-dashoffset:0;marker:none;visibility:visible;display:inline;overflow:visible;enable-background:accumulate"
       d="M 239.39401,944.50503 202.52779,894.14789"
       id="path4463"
       inkscape:path-effect="#path-effect4465"
       inkscape:original-d="M 239.39401,944.50503 202.52779,894.14789"
       inkscape:connector-curvature="0" />
    <path
       style="color:#000000;fill:#928970;fill-opacity:1;stroke:#000000;stroke-width:3;stroke-linecap:butt;stroke-linejoin:miter;stroke-miterlimit:4;stroke-opacity:1;stroke-dasharray:none;stroke-dashoffset:0;marker:none;visibility:visible;display:inline;overflow:visible;enable-background:accumulate"
       d="m 262.65496,946.46932 38.79983,-41.07143"
       id="path4467"
       inkscape:path-effect="#path-effect4469"
       inkscape:original-d="m 262.65496,946.46932 38.79983,-41.07143"
       inkscape:connector-curvature="0" />
    <path
       style="fill:#928970;fill-opacity:1;stroke:#000000;stroke-width:0.17857143;stroke-miterlimit:4;stroke-opacity:1;stroke-dasharray:none"
       d="m 221.69626,917.59783 c -8.83929,-12.08557 -16.0449,-22.06851 -16.01248,-22.18431 0.0324,-0.11579 2.62775,-5.00288 5.76739,-10.86017 l 5.70845,-10.64964 4.67904,-0.10501 c 2.57346,-0.0577 7.23037,-0.14287 10.34867,-0.18915 l 5.66964,-0.0841 0,33.02629 c 0,18.16445 -0.0201,33.02484 -0.0446,33.02308 -0.0246,-0.002 -7.27678,-9.89138 -16.11607,-21.97695 z"
       id="path4473"
       inkscape:connector-curvature="0" />
    <path
       style="fill:#928970;fill-opacity:1;stroke:#000000;stroke-width:0.17857143;stroke-miterlimit:4;stroke-opacity:1;stroke-dasharray:none"
       d="m 263.74984,907.98138 0,-34.83197 8.17364,0 8.17364,0 9.5166,16.08105 c 5.23413,8.84458 9.49126,16.15116 9.46029,16.23686 -0.0644,0.17826 -34.91139,37.09091 -35.16071,37.245 -0.0987,0.061 -0.16346,-13.70078 -0.16346,-34.73094 z"
       id="path4475"
       inkscape:connector-curvature="0" />
    <path
       style="fill:none;stroke:#000000;stroke-width:3;stroke-miterlimit:4;stroke-opacity:1;stroke-dasharray:none"
       d="m 162.04446,671.73085 -0.60548,0.3486 -76.598539,44.10069 0,103.3249 77.204019,-44.57376"
       id="path3857"
       inkscape:connector-curvature="0"
       sodipodi:nodetypes="ccccc" />
    <path
       style="fill:none;stroke:#000000;stroke-width:3;stroke-miterlimit:4;stroke-opacity:1;stroke-dasharray:none"
       d="m 137.76302,686.3705 0,-41.7518"
       id="path3897"
       inkscape:connector-curvature="0" />
    <path
       style="fill:none;stroke:#000000;stroke-width:3;stroke-miterlimit:4;stroke-opacity:1;stroke-dasharray:none"
       d="m 138.26306,645.33299 14.46429,0 0,32.39785"
       id="path3899"
       inkscape:connector-curvature="0" />
    <path
       style="fill:none;stroke:#000000;stroke-width:3;stroke-miterlimit:4;stroke-opacity:1;stroke-dasharray:none"
       d="m 138.97735,662.29728 13.75,0"
       id="path3901"
       inkscape:connector-curvature="0" />
    <path
       style="fill:#000000;fill-opacity:1;stroke:#928970;stroke-width:3;stroke-miterlimit:4;stroke-opacity:1;stroke-dasharray:none"
       d="m 142.09956,648.0182 0,8.75"
       id="path3911"
       inkscape:connector-curvature="0" />
    <path
       style="fill:none;stroke:#928970;stroke-width:3;stroke-miterlimit:4;stroke-opacity:1;stroke-dasharray:none"
       d="m 147.27813,648.0182 0,7.67857"
       id="path3913"
       inkscape:connector-curvature="0" />
    <path
       style="fill:#464235;fill-opacity:1;stroke:none"
       d="m 86.31959,226.59646 0,-49.96351 36.27895,-20.95761 c 19.95343,-11.52669 36.65882,-21.1592 37.12311,-21.40559 l 0.84415,-0.44797 0,49.96657 0,49.96657 -36.91167,21.31835 c -20.30141,11.72509 -37.006812,21.35623 -37.123103,21.40253 -0.11629,0.0463 -0.211437,-22.3994 -0.211437,-49.87934 z"
       id="path3947"
       inkscape:connector-curvature="0"
       transform="translate(0,540.36218)" />
    <path
       style="fill:#928970;fill-opacity:1;stroke:#928970;stroke-width:0.53571427;stroke-miterlimit:4;stroke-opacity:1;stroke-dasharray:none"
       d="m 139.23717,673.76848 0,-10.01488 5.98214,0 5.98215,0 0,6.58518 0,6.58519 -5.82996,3.37017 c -3.20647,1.8536 -5.89843,3.39696 -5.98214,3.4297 -0.0837,0.0327 -0.15219,-4.44717 -0.15219,-9.95536 z"
       id="path3953"
       inkscape:connector-curvature="0" />
    <path
       style="fill:none;stroke:#000000;stroke-width:3;stroke-miterlimit:4;stroke-opacity:1;stroke-dasharray:none"
       d="m 94.794082,170.07122 0,-33.60693 33.955918,0 0,14.00247"
       id="path3976"
       inkscape:connector-curvature="0"
       transform="translate(0,540.36218)" />
    <path
       style="fill:#928970;fill-opacity:1;stroke:#000000;stroke-width:0.53571427;stroke-miterlimit:4;stroke-opacity:1;stroke-dasharray:none"
       d="m 96.274898,152.75325 0,-14.74751 15.538152,0 15.53816,0 -0.0471,5.81786 -0.0471,5.81786 -14.375,8.3025 c -7.90625,4.56638 -14.877231,8.58473 -15.49107,8.92966 l -1.116072,0.62714 0,-14.74751 z"
       id="path3980"
       inkscape:connector-curvature="0"
       transform="translate(0,540.36218)" />
    <path
       style="fill:#c8c4b7;fill-opacity:1;stroke:#464235;stroke-width:2.83687400999999983;stroke-miterlimit:4;stroke-opacity:1;stroke-dasharray:none"
       d="m 96.653382,682.95147 30.363588,0"
       id="path3984"
       inkscape:connector-curvature="0" />
    <path
       style="fill:#c8c4b7;fill-opacity:1;stroke:none"
       d="m 361.74563,653.70346 0,-7.07106 -6.06092,0 -6.06092,0 0,7.07106 0,7.07107 6.06092,0 6.06092,0 0,-7.07107 z"
       id="path3966-9"
       inkscape:connector-curvature="0" />
    <path
       inkscape:connector-curvature="0"
       style="fill:none;stroke:#000000;stroke-width:3;stroke-miterlimit:4;stroke-opacity:1;stroke-dasharray:none"
       d="m 340.20461,672.25947 75.91292,43.81794 0,103.3249 -75.91292,-43.75301"
       id="path3857-9"
       sodipodi:nodetypes="cccc" />
    <path
       style="fill:none;stroke:#000000;stroke-width:3;stroke-miterlimit:4;stroke-opacity:1;stroke-dasharray:none"
       d="m 363.19495,686.26777 0,-41.7518"
       id="path3897-4"
       inkscape:connector-curvature="0" />
    <path
       style="fill:none;stroke:#000000;stroke-width:3;stroke-miterlimit:4;stroke-opacity:1;stroke-dasharray:none"
       d="m 362.69491,645.23026 -14.46429,0 0,32.39785"
       id="path3899-8"
       inkscape:connector-curvature="0" />
    <path
       style="fill:none;stroke:#000000;stroke-width:3;stroke-miterlimit:4;stroke-opacity:1;stroke-dasharray:none"
       d="m 361.98062,662.19455 -13.75,0"
       id="path3901-8"
       inkscape:connector-curvature="0" />
    <path
       style="fill:#000000;fill-opacity:1;stroke:#928970;stroke-width:3;stroke-miterlimit:4;stroke-opacity:1;stroke-dasharray:none"
       d="m 358.85841,647.91547 0,8.75"
       id="path3911-9"
       inkscape:connector-curvature="0" />
    <path
       style="fill:none;stroke:#928970;stroke-width:3;stroke-miterlimit:4;stroke-opacity:1;stroke-dasharray:none"
       d="m 353.67984,647.91547 0,7.67857"
       id="path3913-4"
       inkscape:connector-curvature="0" />
    <path
       style="fill:#464235;fill-opacity:1;stroke:none"
       d="m 414.63838,766.85591 0,-49.96351 -36.27895,-20.95761 C 358.406,684.4081 341.70061,674.77559 341.23632,674.5292 l -0.84415,-0.44797 0,49.96657 0,49.96657 36.91167,21.31835 c 20.30141,11.72509 37.00681,21.35623 37.1231,21.40253 0.11629,0.0463 0.21144,-22.3994 0.21144,-49.87934 z"
       id="path3947-0"
       inkscape:connector-curvature="0" />
    <path
       style="fill:#928970;fill-opacity:1;stroke:#928970;stroke-width:0.53571427;stroke-miterlimit:4;stroke-opacity:1;stroke-dasharray:none"
       d="m 361.7208,673.66575 0,-10.01488 -5.98214,0 -5.98215,0 0,6.58518 0,6.58519 5.82996,3.37017 c 3.20647,1.8536 5.89843,3.39696 5.98214,3.4297 0.0837,0.0327 0.15219,-4.44717 0.15219,-9.95536 z"
       id="path3953-2"
       inkscape:connector-curvature="0" />
    <path
       style="fill:none;stroke:#000000;stroke-width:3;stroke-miterlimit:4;stroke-opacity:1;stroke-dasharray:none"
       d="m 406.16389,710.33067 0,-33.60693 -33.95592,0 0,14.00247"
       id="path3976-2"
       inkscape:connector-curvature="0" />
    <path
       style="fill:#928970;fill-opacity:1;stroke:#000000;stroke-width:0.53571427;stroke-miterlimit:4;stroke-opacity:1;stroke-dasharray:none"
       d="m 404.68307,693.0127 0,-14.74751 -15.53815,0 -15.53816,0 0.0471,5.81786 0.0471,5.81786 14.375,8.3025 c 7.90625,4.56638 14.87723,8.58473 15.49107,8.92966 l 1.11607,0.62714 0,-14.74751 z"
       id="path3980-4"
       inkscape:connector-curvature="0" />
    <path
       style="fill:#c8c4b7;fill-opacity:1;stroke:#464235;stroke-width:2.83687401;stroke-miterlimit:4;stroke-opacity:1;stroke-dasharray:none"
       d="m 404.30459,682.84874 -30.36359,0"
       id="path3984-2"
       inkscape:connector-curvature="0" />
    <path
       style="fill:#464235;fill-opacity:1;stroke:#464235;stroke-width:1.07142854;stroke-miterlimit:4;stroke-opacity:1;stroke-dasharray:none"
       d="m 163.52088,330.65245 0,-96.62822 -0.87178,0 c -0.47948,0 -0.96677,-0.15369 -1.08287,-0.34154 -0.1161,-0.18785 -0.44589,-0.25144 -0.73288,-0.14132 -0.45583,0.17492 -0.5334,-6.10022 -0.61356,-49.6349 l -0.0918,-49.83513 1.17283,-0.55927 c 0.64506,-0.3076 1.48842,-0.55927 1.87414,-0.55927 0.69571,0 0.70204,1.17523 0.79146,146.9984 0.0496,80.84911 -0.0304,147.07288 -0.17771,147.16393 -0.14733,0.091 -0.26786,-43.31716 -0.26786,-96.46268 z"
       id="path4080"
       inkscape:connector-curvature="0"
       transform="translate(0,540.36218)" />
    <path
       style="fill:#464235;fill-opacity:1;stroke:#464235;stroke-width:0.53571427;stroke-miterlimit:4;stroke-opacity:1;stroke-dasharray:none"
       d="m 338.80675,191.68261 c -1.1e-4,-22.95759 -0.0534,-45.53795 -0.11842,-50.17857 l -0.11823,-8.4375 0.36806,0 c 0.20243,0 0.71778,0.19992 1.14521,0.44428 0.42744,0.24435 0.67671,0.44524 0.55395,0.44643 -0.17804,0.002 -0.22322,10.06877 -0.22322,49.73429 l 0,49.73214 -0.80357,0 -0.80357,0 -2.1e-4,-41.74107 z"
       id="path4084"
       inkscape:connector-curvature="0"
       transform="translate(0,540.36218)" />
  </g>
</svg>
